<?xml version="1.0" standalone="no"?>
<!DOCTYPE svg PUBLIC "-//W3C//DTD SVG 20010904//EN"
 "http://www.w3.org/TR/2001/REC-SVG-20010904/DTD/svg10.dtd">
<svg version="1.0" xmlns="http://www.w3.org/2000/svg"
 width="81.000000pt" height="81.000000pt" viewBox="0 0 81.000000 81.000000"
 preserveAspectRatio="xMidYMid meet">
<metadata>
Created by potrace 1.14, written by Peter Selinger 2001-2017
</metadata>
<g transform="translate(0.000000,81.000000) scale(0.100000,-0.100000)"
fill="#000000" stroke="none">
<path d="M568 655 c-1 -1 -26 -5 -55 -9 -28 -3 -82 -12 -120 -20 -145 -30
-255 -36 -307 -16 -16 6 -30 9 -32 7 -4 -3 -6 -278 -5 -404 l1 -42 57 -11 c64
-14 155 -9 278 14 44 9 96 18 115 22 56 9 182 7 213 -5 16 -6 30 -11 33 -11 2
0 4 103 4 229 l0 229 -37 7 c-42 8 -139 15 -145 10z"/>
</g>
</svg>
